
  <svg width="835.5" height="48" viewBox="0 0 4456 256" fill="none" xmlns="http://www.w3.org/2000/svg" xmlns:xlink="http://www.w3.org/1999/xlink" version="1.1">
    
        <g transform="translate(0, 0)">
          <svg width="256" height="256" viewBox="0 0 256 256" fill="none" xmlns="http://www.w3.org/2000/svg">
<rect width="256" height="256" rx="60" fill="#FF6C37"/>
<path d="M169.061 88.6123L118.521 139.153L104.268 124.901C153.971 75.1986 158.882 79.5101 169.061 88.6123Z" fill="#EEEEEE"/>
<path d="M118.521 140.35C118.161 140.35 117.922 140.231 117.682 139.991L103.31 125.739C102.831 125.26 102.831 124.542 103.31 124.063C153.851 73.5211 159.12 78.3118 169.78 87.8932C170.02 88.1328 170.139 88.3724 170.139 88.7317C170.139 89.0911 170.02 89.3306 169.78 89.5694L119.239 139.991C119.12 140.231 118.76 140.35 118.521 140.35ZM105.945 124.901L118.521 137.476L167.265 88.7317C158.403 80.8266 152.414 78.4316 105.945 124.901Z" fill="#FF6C37"/>
<path d="M133.012 153.645L119.239 139.872L169.78 89.3315C183.314 102.984 163.073 125.141 133.012 153.645Z" fill="#EEEEEE"/>
<path d="M133.012 154.843C132.652 154.843 132.414 154.723 132.174 154.483L118.401 140.71C118.161 140.471 118.161 140.231 118.161 139.872C118.161 139.512 118.281 139.273 118.521 139.033L169.061 88.4927C169.54 88.0135 170.259 88.0135 170.738 88.4927C173.852 91.3668 175.529 95.4387 175.409 99.6305C175.17 112.924 160.079 129.811 133.97 154.483C133.611 154.723 133.251 154.843 133.012 154.843ZM120.916 139.872C128.58 147.656 131.815 150.771 133.012 151.968C153.133 132.806 172.654 113.164 172.774 99.6305C172.894 96.5168 171.697 93.4031 169.66 91.0074L120.916 139.872Z" fill="#FF6C37"/>
<path d="M104.508 125.26L114.688 135.44C114.927 135.68 114.927 135.919 114.688 136.159C114.568 136.279 114.568 136.279 114.449 136.279L93.3693 140.83C92.292 140.95 91.3337 140.231 91.0942 139.153C90.9744 138.554 91.214 137.956 91.5733 137.596L103.789 125.38C104.029 125.14 104.388 125.02 104.508 125.26Z" fill="#EEEEEE"/>
<path d="M93.01 142.028C91.214 142.028 89.8963 140.59 89.8963 138.793C89.8963 137.956 90.2557 137.117 90.8546 136.518L103.07 124.302C103.789 123.703 104.748 123.703 105.466 124.302L115.646 134.482C116.364 135.081 116.364 136.159 115.646 136.877C115.406 137.117 115.167 137.237 114.807 137.357L93.7287 141.908C93.4891 141.908 93.2495 142.028 93.01 142.028ZM104.149 126.577L92.4118 138.314C92.1723 138.554 92.0525 138.913 92.292 139.272C92.4118 139.632 92.7704 139.752 93.1298 139.632L112.891 135.32L104.149 126.577Z" fill="#FF6C37"/>
<path d="M195.769 60.5877C188.104 53.1625 175.768 53.4021 168.342 61.1867C160.917 68.9712 161.157 81.1871 168.941 88.6131C175.289 94.7207 184.871 95.7988 192.416 91.2476L178.762 77.5943L195.769 60.5877Z" fill="#EEEEEE"/>
<path d="M182.355 95.1996C170.978 95.1996 161.756 85.9776 161.756 74.6002C161.756 63.222 170.978 54 182.355 54C187.625 54 192.775 56.0364 196.607 59.749C196.847 59.9886 196.967 60.2281 196.967 60.5875C196.967 60.9469 196.847 61.1864 196.607 61.426L180.439 77.5941L193.134 90.2891C193.614 90.7683 193.614 91.487 193.134 91.9661C193.015 92.0859 193.015 92.0859 192.895 92.2057C189.781 94.1215 186.068 95.1996 182.355 95.1996ZM182.355 56.5155C172.295 56.5155 164.151 64.6595 164.271 74.72C164.271 84.7805 172.414 92.9244 182.475 92.8047C185.23 92.8047 187.984 92.2057 190.499 90.888L177.924 78.4326C177.684 78.193 177.565 77.9534 177.565 77.5941C177.565 77.2347 177.684 76.9951 177.924 76.7556L193.973 60.7073C190.739 57.953 186.667 56.5155 182.355 56.5155Z" fill="#FF6C37"/>
<path d="M196.128 60.9471L195.889 60.7075L178.762 77.5943L192.296 91.1279C193.614 90.2894 194.93 89.3319 196.009 88.2538C203.673 80.708 203.673 68.4921 196.128 60.9471Z" fill="#EEEEEE"/>
<path d="M192.416 92.4448C192.056 92.4448 191.817 92.325 191.577 92.0855L177.924 78.4321C177.684 78.1925 177.565 77.953 177.565 77.5936C177.565 77.2342 177.684 76.9947 177.924 76.7551L194.93 59.7485C195.41 59.2694 196.128 59.2694 196.607 59.7485L196.967 59.9881C204.991 68.0122 204.991 80.9469 197.087 89.0916C195.889 90.2887 194.571 91.3667 193.134 92.2053C192.775 92.325 192.536 92.4448 192.416 92.4448ZM180.439 77.5936L192.536 89.6897C193.494 89.0916 194.452 88.2531 195.17 87.5344C201.997 80.7073 202.356 69.5695 195.769 62.3838L180.439 77.5936Z" fill="#FF6C37"/>
<path d="M171.098 90.7674C168.223 87.8933 163.552 87.8933 160.678 90.7674L115.526 135.919L123.072 143.464L170.858 101.547C173.972 98.9113 174.211 94.2404 171.577 91.1267C171.337 91.007 171.217 90.8872 171.098 90.7674Z" fill="#EEEEEE"/>
<path d="M122.952 144.662C122.593 144.662 122.353 144.542 122.113 144.303L114.568 136.758C114.089 136.279 114.089 135.56 114.568 135.081L159.719 89.929C163.073 86.5758 168.462 86.5758 171.816 89.929C175.17 93.283 175.17 98.6719 171.816 102.026C171.697 102.146 171.577 102.265 171.457 102.385L123.67 144.303C123.551 144.542 123.311 144.662 122.952 144.662ZM117.203 135.919L123.072 141.788L170.02 100.588C172.654 98.4323 172.894 94.4801 170.738 91.8456C168.582 89.2111 164.63 88.9715 161.995 91.1269C161.876 91.2467 161.756 91.3664 161.516 91.4862L117.203 135.919Z" fill="#FF6C37"/>
<path d="M80.9139 187.3C80.4347 187.539 80.1951 188.018 80.3149 188.497L82.3513 197.121C82.8305 198.318 82.1117 199.756 80.7941 200.115C79.8358 200.474 78.7585 200.115 78.1596 199.397L64.9854 186.342L107.981 143.346L122.832 143.585L132.892 153.646C130.497 155.682 116.005 169.694 80.9139 187.3Z" fill="#EEEEEE"/>
<path d="M79.9556 201.311C78.9981 201.311 78.0398 200.952 77.4408 200.234L64.3864 187.179C64.1469 186.94 64.0271 186.7 64.0271 186.341C64.0271 185.982 64.1469 185.742 64.3864 185.502L107.382 142.507C107.622 142.267 107.981 142.147 108.221 142.147L123.072 142.387C123.431 142.387 123.67 142.507 123.909 142.746L133.97 152.806C134.21 153.046 134.329 153.405 134.329 153.764C134.329 154.124 134.21 154.363 133.85 154.603L133.012 155.322C120.317 166.459 103.07 177.598 81.6326 188.257L83.669 196.76C84.0275 198.317 83.3096 199.994 81.8722 200.832C81.1534 201.191 80.5545 201.311 79.9556 201.311ZM66.7814 186.341L79.1178 198.557C79.4764 199.156 80.1951 199.395 80.7941 199.036C81.393 198.677 81.6326 197.958 81.2732 197.359L79.2376 188.736C78.9981 187.658 79.4764 186.7 80.4347 186.221C101.633 175.562 118.76 164.544 131.335 153.645L122.473 144.782L108.7 144.542L66.7814 186.341Z" fill="#FF6C37"/>
<path d="M54.8051 196.641L65.1052 186.341L80.4347 201.671L56.0029 199.995C54.9249 199.875 54.2061 198.917 54.3259 197.838C54.3259 197.359 54.4457 196.88 54.8051 196.641Z" fill="#EEEEEE"/>
<path d="M80.4347 202.749L55.8831 201.072C54.0863 200.952 52.8884 199.396 53.0082 197.599C53.128 196.88 53.3676 196.162 53.9665 195.683L64.2666 185.383C64.7458 184.904 65.4645 184.904 65.9429 185.383L81.2732 200.713C81.6326 201.072 81.7524 201.551 81.5128 202.031C81.2732 202.51 80.9139 202.749 80.4347 202.749ZM65.1051 188.018L55.6435 197.479C55.2842 197.719 55.2842 198.318 55.6435 198.557C55.7633 198.677 55.8831 198.797 56.1227 198.797L77.321 200.234L65.1051 188.018Z" fill="#FF6C37"/>
<path d="M103.789 148.855C103.07 148.855 102.591 148.256 102.591 147.657C102.591 147.298 102.711 147.059 102.951 146.819L114.568 135.202C115.047 134.722 115.766 134.722 116.245 135.202L123.79 142.747C124.149 143.106 124.269 143.465 124.149 143.945C124.029 144.304 123.67 144.663 123.192 144.783L104.029 148.855C103.909 148.855 103.789 148.855 103.789 148.855ZM115.406 137.717L107.502 145.622L120.436 142.866L115.406 137.717Z" fill="#FF6C37"/>
<path d="M122.832 143.584L109.658 146.459C108.7 146.699 107.741 146.1 107.502 145.142C107.382 144.543 107.502 143.944 107.981 143.465L115.286 136.159L122.832 143.584Z" fill="#EEEEEE"/>
<path d="M109.418 147.657C107.741 147.657 106.424 146.34 106.424 144.663C106.424 143.825 106.783 143.106 107.262 142.508L114.568 135.202C115.047 134.722 115.766 134.722 116.245 135.202L123.79 142.747C124.149 143.106 124.269 143.465 124.149 143.945C124.029 144.304 123.67 144.663 123.192 144.783L110.017 147.657C109.778 147.657 109.538 147.657 109.418 147.657ZM115.406 137.717L108.939 144.184C108.7 144.424 108.7 144.663 108.819 144.903C108.939 145.142 109.179 145.262 109.538 145.262L120.556 142.866L115.406 137.717Z" fill="#FF6C37"/>
<path d="M196.248 72.4434C196.009 71.7254 195.17 71.3661 194.451 71.6057C193.733 71.8444 193.374 72.6829 193.614 73.4017C193.614 73.5215 193.733 73.6412 193.733 73.761C194.451 75.1985 194.213 76.9945 193.254 78.3121C192.775 78.9111 192.895 79.7496 193.374 80.2287C193.973 80.7071 194.811 80.5881 195.29 79.9892C197.087 77.7132 197.446 74.8391 196.248 72.4434Z" fill="#FF6C37"/>
</svg>

        </g>
         
        <g transform="translate(300, 0)">
          <svg xmlns="http://www.w3.org/2000/svg" width="256" height="256" fill="none" viewBox="0 0 256 256"><rect width="256" height="256" fill="#F4F2ED" rx="60"/><path fill="url(#paint0_linear_2_56)" d="M127.279 29C76.5066 29 79.6772 51.018 79.6772 51.018L79.7338 73.8284H128.185V80.6772H60.4893C60.4893 80.6772 28 76.9926 28 128.222C28 179.452 56.3573 177.636 56.3573 177.636H73.2812V153.863C73.2812 153.863 72.369 125.506 101.186 125.506H149.24C149.24 125.506 176.239 125.942 176.239 99.4123V55.5461C176.239 55.5461 180.338 29 127.279 29ZM100.563 44.339C105.384 44.339 109.28 48.2351 109.28 53.0556C109.28 57.8761 105.384 61.7723 100.563 61.7723C95.7426 61.7723 91.8465 57.8761 91.8465 53.0556C91.8465 48.2351 95.7426 44.339 100.563 44.339Z"/><path fill="url(#paint1_linear_2_56)" d="M128.721 227.958C179.493 227.958 176.323 205.941 176.323 205.941L176.266 183.13H127.815V176.281H195.511C195.511 176.281 228 179.966 228 128.736C228 77.5062 199.643 79.323 199.643 79.323H182.719V103.096C182.719 103.096 183.631 131.453 154.814 131.453H106.76C106.76 131.453 79.7607 131.016 79.7607 157.546V201.412C79.7607 201.412 75.6615 227.958 128.721 227.958ZM155.437 212.619C150.616 212.619 146.72 208.723 146.72 203.903C146.72 199.082 150.616 195.186 155.437 195.186C160.257 195.186 164.154 199.082 164.154 203.903C164.154 208.723 160.257 212.619 155.437 212.619Z"/><defs><linearGradient id="paint0_linear_2_56" x1="47.22" x2="146.333" y1="46.896" y2="145.02" gradientUnits="userSpaceOnUse"><stop stop-color="#387EB8"/><stop offset="1" stop-color="#366994"/></linearGradient><linearGradient id="paint1_linear_2_56" x1="108.056" x2="214.492" y1="109.905" y2="210.522" gradientUnits="userSpaceOnUse"><stop stop-color="#FFE052"/><stop offset="1" stop-color="#FFC331"/></linearGradient></defs></svg>
        </g>
         
        <g transform="translate(600, 0)">
          <svg xmlns="http://www.w3.org/2000/svg" width="256" height="256" fill="none" viewBox="0 0 256 256"><rect width="256" height="256" fill="#F4F2ED" rx="60"/><path fill="#000" d="M49.158 100.246H77.566C85.904 100.316 91.946 102.72 95.692 107.454C99.438 112.188 100.674 118.654 99.402 126.852C98.908 130.598 97.812 134.272 96.116 137.876C94.49 141.48 92.23 144.73 89.332 147.628C85.798 151.302 82.018 153.634 77.99 154.624C73.962 155.614 69.792 156.108 65.482 156.108H52.762L48.734 176.248H34L49.158 100.246V100.246ZM61.56 112.33L55.2 144.13C55.624 144.2 56.048 144.236 56.472 144.236C56.966 144.236 57.462 144.236 57.956 144.236C64.74 144.306 70.394 143.636 74.916 142.222C79.438 140.738 82.478 135.58 84.032 126.746C85.304 119.326 84.032 115.05 80.216 113.92C76.47 112.79 71.772 112.26 66.118 112.33C65.27 112.4 64.458 112.436 63.68 112.436C62.974 112.436 62.232 112.436 61.454 112.436L61.56 112.33"/><path fill="#000" d="M116.186 80H130.814L126.68 100.246H139.824C147.032 100.388 152.402 101.872 155.936 104.698C159.54 107.524 160.6 112.896 159.116 120.81L152.014 156.108H137.174L143.958 122.4C144.664 118.866 144.452 116.358 143.322 114.874C142.192 113.39 139.754 112.648 136.008 112.648L124.242 112.542L115.55 156.108H100.922L116.186 80Z"/><path fill="#000" d="M174.824 100.246H203.232C211.57 100.316 217.612 102.72 221.358 107.454C225.104 112.188 226.34 118.654 225.068 126.852C224.574 130.598 223.478 134.272 221.782 137.876C220.156 141.48 217.896 144.73 214.998 147.628C211.464 151.302 207.684 153.634 203.656 154.624C199.628 155.614 195.458 156.108 191.148 156.108H178.428L174.4 176.248H159.666L174.824 100.246V100.246ZM187.226 112.33L180.866 144.13C181.29 144.2 181.714 144.236 182.138 144.236C182.632 144.236 183.128 144.236 183.622 144.236C190.406 144.306 196.06 143.636 200.582 142.222C205.104 140.738 208.144 135.58 209.698 126.746C210.97 119.326 209.698 115.05 205.882 113.92C202.136 112.79 197.438 112.26 191.784 112.33C190.936 112.4 190.124 112.436 189.346 112.436C188.64 112.436 187.898 112.436 187.12 112.436L187.226 112.33"/></svg>
        </g>
         
        <g transform="translate(900, 0)">
          <svg xmlns="http://www.w3.org/2000/svg" width="256" height="256" fill="none" viewBox="0 0 256 256"><rect width="256" height="256" fill="#F4F2ED" rx="60"/><path fill="#4E7896" d="M101.634 182.619C101.634 182.619 93.9548 187.293 106.979 188.63C122.707 190.634 131.023 190.299 148.386 186.962C148.386 186.962 153.06 189.971 159.406 192.306C120.331 209.002 70.9089 191.304 101.634 182.619ZM96.6252 160.914C96.6252 160.914 88.2753 167.26 101.299 168.593C118.327 170.262 131.69 170.597 154.732 165.926C154.732 165.926 157.741 169.267 162.747 170.936C115.664 184.961 62.8975 172.269 96.6252 160.917V160.914ZM188.795 198.984C188.795 198.984 194.471 203.658 182.449 207.334C160.073 214.012 88.6104 216.019 68.5735 207.334C61.564 204.325 74.9197 199.982 79.2587 199.319C83.6012 198.317 85.9366 198.317 85.9366 198.317C78.2569 192.973 34.8424 209.337 63.8959 214.046C143.709 227.073 209.499 208.37 188.792 199.018L188.795 198.984ZM105.307 138.203C105.307 138.203 68.9052 146.888 92.2793 149.89C102.298 151.223 122 150.892 140.368 149.555C155.396 148.221 170.458 145.548 170.458 145.548C170.458 145.548 165.113 147.886 161.441 150.222C124.342 159.915 53.2107 155.573 73.5827 145.554C90.9526 137.204 105.307 138.203 105.307 138.203V138.203ZM170.423 174.604C207.83 155.234 190.46 136.534 178.438 138.873C175.429 139.54 174.096 140.207 174.096 140.207C174.096 140.207 175.097 138.203 177.436 137.54C201.145 129.19 219.849 162.586 169.757 175.61C169.757 175.61 170.092 175.275 170.423 174.608V174.604ZM108.979 227.364C145.046 229.703 200.147 226.03 201.484 208.995C201.484 208.995 198.817 215.673 171.764 220.683C141.042 226.359 102.968 225.692 80.5957 222.016C80.5957 222.016 85.2698 226.023 108.982 227.36L108.979 227.364Z"/><path fill="#F58219" d="M147.685 28C147.685 28 168.389 49.0388 127.983 80.7594C95.5891 106.472 120.632 121.168 127.983 137.861C108.948 120.833 95.2609 105.802 104.606 91.7762C118.331 71.0828 156.062 61.0644 147.685 28ZM137 123.842C146.683 134.862 134.333 144.881 134.333 144.881C134.333 144.881 159.044 132.195 147.692 116.494C137.338 101.466 129.324 94.1184 172.738 69.0689C172.738 69.0689 104.277 86.0968 137.007 123.835L137 123.842Z"/></svg>
        </g>
         
        <g transform="translate(1200, 0)">
          <svg xmlns="http://www.w3.org/2000/svg" width="256" height="256" fill="none" viewBox="0 0 256 256"><rect width="256" height="256" fill="#E14E1D" rx="60"/><path fill="#fff" d="M48 38L56.6098 134.593H167.32L163.605 176.023L127.959 185.661L92.38 176.037L90.0012 149.435H57.9389L62.5236 200.716L127.951 218.888L193.461 200.716L202.244 102.655H85.8241L82.901 69.9448H205.041H205.139L208 38H48Z"/><path fill="#EBEBEB" d="M128 38H48L56.6098 134.593H128V102.655H85.8241L82.901 69.9448H128V38Z"/><path fill="#EBEBEB" d="M128 185.647L127.959 185.661L92.38 176.037L90.0012 149.435H57.9388L62.5236 200.716L127.951 218.888L128 218.874V185.647Z"/></svg>
        </g>
         
        <g transform="translate(1500, 0)">
          <svg width="256" height="256" viewBox="0 0 256 256" fill="none" xmlns="http://www.w3.org/2000/svg">
<rect width="256" height="256" rx="60" fill="#0277BD"/>
<path d="M53.7527 102.651L56.6155 134.593H128.096V102.651H53.7527Z" fill="#EBEBEB"/>
<path d="M128.095 38H127.985H48L50.9036 69.9423H128.095V38Z" fill="#EBEBEB"/>
<path d="M128.095 218.841V185.608L127.955 185.645L92.3813 176.04L90.1072 150.564H72.821H58.0425L62.5175 200.718L127.948 218.882L128.095 218.841Z" fill="#EBEBEB"/>
<path d="M167.318 134.593L163.61 176.019L127.985 185.635V218.866L193.468 200.718L193.948 195.321L201.454 111.229L202.233 102.651L208 38H127.985V69.9423H172.994L170.088 102.651H127.985V134.593H167.318Z" fill="white"/>
</svg>

        </g>
         
        <g transform="translate(1800, 0)">
          <svg width="256" height="256" viewBox="0 0 256 256" fill="none" xmlns="http://www.w3.org/2000/svg">
<rect width="256" height="256" rx="60" fill="#F0DB4F"/>
<path d="M67.3117 213.932L86.9027 202.076C90.6821 208.777 94.1202 214.447 102.367 214.447C110.272 214.447 115.256 211.355 115.256 199.327V117.529H139.314V199.667C139.314 224.584 124.708 235.926 103.398 235.926C84.1533 235.926 72.9819 225.959 67.3113 213.93" fill="#323330"/>
<path d="M152.381 211.354L171.969 200.013C177.126 208.434 183.828 214.62 195.684 214.62C205.653 214.62 212.009 209.636 212.009 202.762C212.009 194.514 205.479 191.592 194.481 186.782L188.468 184.203C171.111 176.815 159.597 167.535 159.597 147.945C159.597 129.901 173.345 116.153 194.826 116.153C210.12 116.153 221.118 121.481 229.022 135.4L210.291 147.429C206.166 140.04 201.7 137.119 194.826 137.119C187.78 137.119 183.312 141.587 183.312 147.429C183.312 154.646 187.78 157.568 198.09 162.037L204.104 164.614C224.553 173.379 236.067 182.313 236.067 202.418C236.067 224.072 219.055 235.928 196.2 235.928C173.861 235.928 159.426 225.274 152.381 211.354" fill="#323330"/>
</svg>

        </g>
         
        <g transform="translate(2100, 0)">
          <svg xmlns="http://www.w3.org/2000/svg" width="256" height="256" fill="none" viewBox="0 0 256 256"><rect width="256" height="256" fill="#F4F2ED" rx="60"/><path stroke="#000" stroke-width="10" d="M217 69H39C33.4772 69 29 73.4772 29 79V177C29 182.523 33.4772 187 39 187H217C222.523 187 227 182.523 227 177V79C227 73.4772 222.523 69 217 69Z"/><path fill="#000" d="M54 162V94H74L94 119L114 94H134V162H114V123L94 148L74 123V162H54ZM179 162L149 129H169V94H189V129H209L179 162Z"/></svg>
        </g>
         
        <g transform="translate(2400, 0)">
          <svg xmlns="http://www.w3.org/2000/svg" width="256" height="256" fill="none" viewBox="0 0 256 256"><rect width="256" height="256" fill="#F4F2ED" rx="60"/><g clip-path="url(#clip0_7_150)"><path fill="#00678C" fill-rule="evenodd" d="M203.801 178.21C194.011 177.938 186.416 178.941 180.051 181.619C178.218 182.355 175.277 182.355 175.035 184.662C176.015 185.63 176.133 187.214 176.992 188.556C178.459 190.991 181.033 194.271 183.357 195.973L191.191 201.571C195.965 204.488 201.351 206.193 206.002 209.113C208.696 210.817 211.388 213.007 214.082 214.834C215.454 215.807 216.285 217.392 218 217.997V217.629C217.144 216.538 216.897 214.957 216.044 213.735L212.367 210.209C208.82 205.465 204.41 201.325 199.636 197.922C195.718 195.245 187.152 191.596 185.56 187.097L185.319 186.824C188.008 186.552 191.191 185.605 193.764 184.875C197.929 183.784 201.721 184.024 206.002 182.93L211.882 181.226V180.135C209.678 177.946 208.087 175.025 205.763 172.959C199.521 167.606 192.661 162.373 185.56 157.994C181.766 155.562 176.868 153.977 172.829 151.913C171.356 151.182 168.911 150.817 168.055 149.601C165.846 146.929 164.625 143.397 163.034 140.232L152.997 119.064C150.794 114.319 149.444 109.574 146.755 105.195C134.144 84.5124 120.431 71.9828 99.375 59.6932C94.8477 57.1382 89.4616 56.0393 83.7353 54.7032L74.5546 54.2124C72.5928 53.3616 70.6364 51.0493 68.9216 49.9531C61.9441 45.5739 43.9475 36.0847 38.8029 48.5897C35.4966 56.4974 43.7006 64.2824 46.4855 68.299C48.5708 71.0966 51.2597 74.2597 52.7332 77.4228C53.5563 79.4897 53.8307 81.682 54.6895 83.8717C56.6458 89.2243 58.4842 95.1878 61.0551 100.178C62.427 102.733 63.8675 105.413 65.5824 107.723C66.5619 109.086 68.2768 109.67 68.6417 111.859C66.9268 114.294 66.8089 117.94 65.8293 120.986C61.42 134.734 63.1349 151.766 69.377 161.888C71.3389 164.928 75.9622 171.622 82.2345 169.065C87.744 166.875 86.5148 159.941 88.1062 153.857C88.4766 152.399 88.2297 151.425 88.9623 150.449V150.722L93.9834 160.819C97.7781 166.78 104.391 172.986 109.897 177.125C112.833 179.315 115.16 183.089 118.831 184.425V184.057H118.59C117.854 182.966 116.751 182.475 115.772 181.624C113.569 179.435 111.121 176.757 109.406 174.325C104.267 167.513 99.7399 159.968 95.6983 152.183C93.7365 148.412 92.0216 144.275 90.4357 140.504C89.6949 139.043 89.6949 136.85 88.4739 136.125C86.6355 138.797 83.9466 141.115 82.5939 144.398C80.2672 149.628 80.0257 156.077 79.1697 162.769C78.6758 162.891 78.8953 162.769 78.6758 163.041C74.7631 162.071 73.4132 158.051 71.9453 154.648C68.274 146.01 67.6594 132.141 70.8422 122.164C71.6983 119.609 75.375 111.579 73.9071 109.146C73.1662 106.834 70.7242 105.498 69.3743 103.671C67.7829 101.359 66.0735 98.4409 64.9705 95.8859C62.0346 89.0689 60.5667 81.5293 57.3812 74.7151C55.9077 71.552 53.3396 68.2662 51.257 65.3486C48.9303 62.0628 46.3648 59.7505 44.5265 55.8593C43.9146 54.4959 43.0585 52.3309 44.0381 50.8693C44.2795 49.8959 44.7734 49.5059 45.7475 49.2878C47.3389 47.9244 51.8716 49.6532 53.463 50.3785C57.9903 52.2054 61.7849 53.907 65.5796 56.4592C67.2945 57.6754 69.1329 59.9877 71.3361 60.5985H73.9098C77.8279 61.4493 82.2317 60.8712 85.9002 61.9619C92.3893 64.0343 98.2637 67.0719 103.532 70.3604C119.567 80.4577 132.792 94.8143 141.725 111.971C143.193 114.769 143.805 117.324 145.155 120.244C147.729 126.208 150.912 132.289 153.477 138.132C156.051 143.85 158.498 149.694 162.17 154.438C164.008 156.993 171.35 158.329 174.654 159.668C177.104 160.759 180.896 161.741 183.105 163.077C187.264 165.632 191.427 168.552 195.342 171.35C197.298 172.806 203.423 175.849 203.787 178.276L203.801 178.21ZM78.9584 72.4873C77.267 72.4724 75.5809 72.6769 73.9427 73.0954V73.3681H74.1842C75.1637 75.315 76.8786 76.6538 78.1023 78.3581L80.9202 84.1989L81.1616 83.9262C82.8765 82.71 83.7353 80.7631 83.7353 77.8454C83 76.9947 82.8793 76.1412 82.2674 75.2904C81.5321 74.0743 79.9407 73.4635 78.9584 72.4928V72.4873Z" clip-rule="evenodd"/></g><defs><clipPath id="clip0_7_150"><rect width="180" height="180" fill="#fff" transform="translate(38 38)"/></clipPath></defs></svg>
        </g>
         
        <g transform="translate(2700, 0)">
          <svg xmlns="http://www.w3.org/2000/svg" width="256" height="256" fill="none" viewBox="0 0 256 256"><rect width="256" height="256" fill="#F4F2ED" rx="60"/><path fill="#ECEFF1" d="M85.9493 199.926L110.48 213.546H147.576L182.278 187.491L197.834 146.632L161.935 103.405L151.764 79.1268L102.104 80.9032L102.702 94.5228L93.1291 112.287L78.1713 141.303L75.1797 165.581L85.9493 199.926Z"/><path fill="#263238" d="M187.064 114.656C177.491 101.036 169.713 92.7463 165.525 75.5738C161.337 58.4013 166.722 63.1386 163.132 48.3347C161.337 40.6367 158.345 35.3073 155.354 31.1622C151.764 27.0171 147.576 24.6485 145.182 24.0563C139.798 21.0956 127.233 16.3583 111.677 24.6485C95.5223 32.9387 97.3172 50.7033 100.309 86.8248C100.309 89.1934 99.7105 92.1542 98.5139 94.5228C96.1206 99.8522 91.9324 104.589 88.3425 108.735C84.1543 114.656 79.9661 120.578 76.9746 127.091C69.7948 140.711 63.2134 157.883 65.0083 164.397C67.9999 163.805 105.694 220.652 105.694 221.836C108.087 221.244 118.258 221.244 127.233 221.244C139.798 220.652 146.977 220.06 157.149 222.428C157.149 220.652 156.55 218.875 156.55 217.099C156.55 213.546 157.149 210.585 157.747 206.44C158.345 203.479 158.944 200.519 159.542 196.966C153.559 202.295 142.789 208.217 132.618 209.993C123.643 211.769 108.685 208.809 101.505 199.926C102.104 199.926 103.3 199.926 103.899 199.334C105.694 198.742 107.489 198.15 108.087 196.966C109.882 194.005 108.685 191.044 107.489 189.268C106.292 187.491 97.3173 180.977 93.1291 177.425C88.9409 173.872 86.5476 172.095 84.1544 169.727C84.1544 169.727 80.5645 166.174 79.3678 164.989C78.1712 163.805 77.5729 162.621 76.9746 162.028C75.778 159.068 75.1796 155.515 75.778 150.778C76.3763 144.264 78.7695 138.934 81.7611 133.013C82.9577 130.644 85.9493 125.907 85.9493 125.907C85.9493 125.907 75.778 150.778 81.1628 158.476C81.1628 158.476 81.7611 150.778 84.1544 143.08C85.9493 137.75 88.9409 130.052 92.5307 125.907C96.1206 121.762 105.095 106.366 105.694 96.8914C105.694 92.7463 106.292 88.6012 106.292 85.6405C103.899 83.2718 145.781 77.3503 148.174 83.864C148.772 86.2326 157.149 107.55 161.935 118.801C164.328 124.131 167.32 128.868 169.115 134.789C170.91 141.303 172.106 150.185 172.106 159.068C172.106 160.844 172.106 163.805 171.508 166.766C172.705 166.766 196.039 141.895 168.517 121.17C168.517 121.17 185.269 128.868 185.868 144.264C186.466 156.699 181.081 166.766 179.885 168.542C180.483 168.542 192.449 173.872 193.047 173.872C195.441 173.872 200.227 172.095 200.227 172.095C200.826 170.319 202.62 165.581 202.62 163.805C206.809 150.185 196.637 128.276 187.064 114.656V114.656Z"/><path fill="#ECEFF1" d="M111.078 75.5738C115.374 75.5738 118.856 70.2714 118.856 63.7307C118.856 57.1899 115.374 51.8876 111.078 51.8876C106.783 51.8876 103.3 57.1899 103.3 63.7307C103.3 70.2714 106.783 75.5738 111.078 75.5738Z"/><path fill="#ECEFF1" d="M138.002 76.7581C143.62 76.7581 148.174 70.6604 148.174 63.1386C148.174 55.6167 143.62 49.519 138.002 49.519C132.385 49.519 127.831 55.6167 127.831 63.1386C127.831 70.6604 132.385 76.7581 138.002 76.7581Z"/><path fill="#212121" d="M115.424 64.5411C114.927 60.6476 112.663 57.7241 110.368 58.0111C108.074 58.2982 106.616 61.6872 107.114 65.5807C107.611 69.4741 109.874 72.3977 112.169 72.1106C114.464 71.8235 115.921 68.4345 115.424 64.5411Z"/><path fill="#212121" d="M137.405 73.2052C140.709 73.2052 143.388 69.7587 143.388 65.5072C143.388 61.2557 140.709 57.8091 137.405 57.8091C134.1 57.8091 131.421 61.2557 131.421 65.5072C131.421 69.7587 134.1 73.2052 137.405 73.2052Z"/><path fill="#FFC107" d="M216.98 195.781C214.587 194.597 210.398 192.82 206.808 187.491C205.014 184.53 205.612 176.24 202.62 172.687C200.825 170.319 198.432 171.503 197.834 171.503C192.449 172.687 179.884 180.977 171.508 171.503C170.311 170.319 168.516 168.542 165.525 168.542C162.533 168.542 161.337 169.726 160.14 172.095C158.943 174.464 158.943 176.24 158.943 182.162C158.943 186.899 158.943 192.228 158.345 196.373C157.148 206.44 155.354 212.362 155.354 218.283C155.354 224.797 157.148 228.942 159.542 230.718C161.337 232.495 164.328 233.679 170.91 233.679C177.491 233.679 181.679 231.311 185.868 227.165C188.859 224.205 191.252 223.02 199.629 217.099C206.21 212.954 216.382 207.624 218.176 205.848C219.373 204.664 221.168 204.071 221.168 200.518C221.168 197.558 218.775 196.373 216.98 195.781V195.781Z"/><path fill="#FFC107" d="M96.7189 197.558C90.7357 188.083 90.1374 186.307 85.9492 180.385C82.3593 174.464 74.5813 163.213 69.7948 163.213C66.2049 163.213 64.4099 164.989 62.0167 167.358C59.6234 169.726 57.2302 175.056 53.042 178.017C49.4521 180.977 39.2808 180.385 36.8875 183.938C34.4942 187.491 39.2808 192.821 39.2808 201.703C39.2808 205.256 36.2892 207.624 35.6909 209.993C35.0926 212.954 34.4942 214.73 35.6909 217.099C38.0841 220.652 41.0757 221.836 61.4184 225.981C72.188 228.35 82.3593 234.271 88.9408 234.864C95.5222 235.456 106.89 234.864 106.89 218.875C107.489 209.401 102.104 207.032 96.7189 197.558Z"/><path fill="#FFC107" d="M108.087 90.3777C104.497 88.0091 101.505 85.6404 101.505 82.0875C101.505 78.5346 103.899 77.3503 107.489 74.3895C108.087 73.7973 114.668 67.8758 121.25 67.8758C127.831 67.8758 135.609 72.0209 138.601 73.2052C143.986 74.3895 149.37 75.5738 148.772 79.7189C148.174 85.6404 147.576 86.8248 141.592 89.7855C137.404 90.9698 129.626 97.4835 124.241 97.4835C121.848 97.4835 118.258 97.4835 115.865 96.8914C114.07 96.2992 111.078 93.3385 108.087 90.3777V90.3777Z"/><path fill="#634703" d="M106.89 85.6405C108.087 86.8248 109.882 88.0091 111.677 88.6012C112.873 89.1934 114.668 89.7856 114.668 89.7856C117.062 89.7856 118.857 89.7856 120.053 89.7856C123.045 89.7856 127.233 88.6013 131.421 86.2326C135.609 84.4562 136.208 83.2718 139.199 82.0875C142.191 80.3111 145.182 78.5346 143.986 77.9425C142.789 77.3503 141.592 77.9425 137.404 80.3111C133.814 82.6797 130.823 83.864 127.233 85.6405C125.438 86.2326 123.045 87.4169 121.25 87.4169C119.455 87.4169 117.66 87.4169 115.865 87.4169C114.07 87.4169 112.873 86.8248 111.078 86.2326C109.882 85.6405 109.283 85.0483 108.685 85.0483C107.489 84.4562 105.095 82.0875 103.899 81.4954C103.899 81.4954 102.702 81.4954 103.3 82.0875C105.095 83.864 105.694 84.4562 106.89 85.6405Z"/><path fill="#634703" d="M124.84 72.613C125.438 73.7973 126.635 73.7973 127.233 74.3895C127.831 74.9816 128.43 74.9816 128.43 74.9816C129.028 74.3895 128.43 73.2052 127.831 73.2052C127.831 72.0209 124.84 72.0209 124.84 72.613V72.613Z"/><path fill="#634703" d="M115.267 73.7973C115.267 74.3895 116.463 74.9816 116.463 74.3895C117.062 73.7973 117.66 73.2052 118.258 73.2052C119.455 72.613 118.856 72.0209 117.062 72.0209C115.865 72.613 115.865 73.2052 115.267 73.7973V73.7973Z"/><path fill="#455A64" d="M173.303 178.609C173.303 179.201 173.303 179.793 173.303 180.385C174.5 182.754 177.491 183.346 179.884 183.346C183.474 183.346 187.064 180.977 188.859 178.609C188.859 178.017 189.457 177.424 190.056 176.832C191.252 175.056 191.851 173.872 192.449 173.279C192.449 173.279 191.851 172.687 191.851 172.095C191.252 170.911 189.457 169.726 187.064 169.134C185.269 168.542 182.278 167.95 181.081 167.95C175.696 167.358 172.705 169.134 170.91 170.911C170.91 170.911 171.508 170.911 171.508 171.503C172.705 172.687 173.303 173.872 173.303 175.648C173.901 176.832 173.303 177.424 173.303 178.609V178.609Z"/></svg>
        </g>
         
        <g transform="translate(3000, 0)">
          <svg xmlns="http://www.w3.org/2000/svg" width="256" height="256" fill="none" viewBox="0 0 256 256"><rect width="256" height="256" fill="#F03C2E" rx="60"/><g clip-path="url(#clip0_7_283)"><path fill="#fff" d="M224.225 119.094L136.906 31.775C135.711 30.5787 134.291 29.6298 132.729 28.9824C131.166 28.3349 129.491 28.0017 127.8 28.0017C126.109 28.0017 124.434 28.3349 122.871 28.9824C121.309 29.6298 119.889 30.5787 118.694 31.775L100.569 49.9L123.569 72.9C128.919 71.025 135.044 72.3062 139.306 76.5687C141.335 78.6014 142.752 81.1638 143.394 83.9632C144.036 86.7626 143.878 89.6862 142.937 92.4L165.106 114.569C170.469 112.719 176.656 113.912 180.937 118.206C182.361 119.63 183.49 121.32 184.26 123.18C185.03 125.04 185.426 127.033 185.426 129.046C185.425 131.059 185.029 133.052 184.258 134.912C183.487 136.771 182.358 138.461 180.934 139.884C179.511 141.308 177.821 142.436 175.961 143.206C174.101 143.977 172.108 144.373 170.095 144.372C168.082 144.372 166.088 143.975 164.229 143.205C162.369 142.434 160.679 141.305 159.256 139.881C154.756 135.381 153.644 128.756 155.919 123.212L135.244 102.537V156.944C136.745 157.686 138.116 158.666 139.306 159.844C140.729 161.267 141.858 162.956 142.629 164.816C143.399 166.675 143.795 168.668 143.795 170.681C143.795 172.694 143.399 174.687 142.629 176.546C141.858 178.406 140.729 180.096 139.306 181.519C137.883 182.942 136.193 184.071 134.334 184.841C132.474 185.611 130.481 186.008 128.469 186.008C126.456 186.008 124.463 185.611 122.604 184.841C120.744 184.071 119.054 182.942 117.631 181.519C116.206 180.096 115.076 178.407 114.305 176.548C113.533 174.688 113.136 172.694 113.136 170.681C113.136 168.668 113.533 166.675 114.305 164.815C115.076 162.955 116.206 161.266 117.631 159.844C119.112 158.369 120.756 157.25 122.65 156.5V101.587C120.825 100.837 119.112 99.7312 117.631 98.2437C115.479 96.0943 114.016 93.3526 113.428 90.3684C112.841 87.3841 113.155 84.2924 114.331 81.4875L91.6437 58.8125L31.7687 118.625C30.5716 119.821 29.6219 121.241 28.9739 122.804C28.3259 124.367 27.9924 126.042 27.9924 127.734C27.9924 129.426 28.3259 131.102 28.9739 132.665C29.6219 134.228 30.5716 135.648 31.7687 136.844L119.094 224.156C120.289 225.352 121.709 226.301 123.271 226.949C124.834 227.596 126.509 227.929 128.2 227.929C129.891 227.929 131.566 227.596 133.129 226.949C134.691 226.301 136.111 225.352 137.306 224.156L224.225 137.375C225.422 136.179 226.372 134.759 227.02 133.196C227.668 131.633 228.001 129.958 228.001 128.266C228.001 126.574 227.668 124.898 227.02 123.335C226.372 121.772 225.422 120.352 224.225 119.156"/></g><defs><clipPath id="clip0_7_283"><rect width="200" height="200" fill="#fff" transform="translate(28 28)"/></clipPath></defs></svg>
        </g>
         
        <g transform="translate(3300, 0)">
          <svg width="256" height="256" viewBox="0 0 256 256" fill="none" xmlns="http://www.w3.org/2000/svg">
<rect width="256" height="256" rx="60" fill="#F4F2ED"/>
<path d="M128.001 30C72.7791 30 28 74.7708 28 130.001C28 174.184 56.6533 211.668 96.3867 224.891C101.384 225.817 103.219 222.722 103.219 220.081C103.219 217.696 103.126 209.819 103.083 201.463C75.2631 207.512 69.3927 189.664 69.3927 189.664C64.8437 178.105 58.2894 175.032 58.2894 175.032C49.2163 168.825 58.9733 168.953 58.9733 168.953C69.0151 169.658 74.3026 179.258 74.3026 179.258C83.2217 194.546 97.6965 190.126 103.403 187.571C104.301 181.107 106.892 176.696 109.752 174.199C87.5405 171.67 64.1913 163.095 64.1913 124.778C64.1913 113.86 68.0977 104.939 74.4947 97.9362C73.4564 95.4175 70.0335 85.2465 75.4635 71.4722C75.4635 71.4722 83.8609 68.7845 102.971 81.7226C110.948 79.5069 119.502 78.3958 128.001 78.3577C136.499 78.3958 145.061 79.5069 153.052 81.7226C172.139 68.7845 180.525 71.4722 180.525 71.4722C185.968 85.2465 182.544 95.4175 181.505 97.9362C187.917 104.939 191.797 113.86 191.797 124.778C191.797 163.187 168.403 171.644 146.135 174.119C149.722 177.223 152.918 183.308 152.918 192.638C152.918 206.018 152.802 216.787 152.802 220.081C152.802 222.742 154.602 225.86 159.671 224.878C199.383 211.64 228 174.169 228 130.001C228 74.7708 183.227 30 128.001 30ZM65.4536 172.453C65.2333 172.95 64.4517 173.099 63.7396 172.758C63.0143 172.432 62.6069 171.754 62.8421 171.256C63.0574 170.744 63.8406 170.602 64.5643 170.945C65.2913 171.271 65.7053 171.955 65.4536 172.453ZM70.3725 176.842C69.8956 177.285 68.9633 177.079 68.3307 176.38C67.6766 175.683 67.554 174.751 68.0376 174.302C68.5294 173.86 69.4336 174.067 70.0893 174.764C70.7434 175.47 70.8709 176.395 70.3725 176.842ZM73.7471 182.458C73.1344 182.884 72.1325 182.485 71.5132 181.595C70.9004 180.706 70.9004 179.64 71.5264 179.212C72.1474 178.785 73.1344 179.169 73.762 180.052C74.373 180.956 74.373 182.023 73.7471 182.458ZM79.4542 188.962C78.9061 189.566 77.7386 189.404 76.8841 188.579C76.0098 187.773 75.7663 186.629 76.3161 186.024C76.8709 185.418 78.045 185.589 78.9061 186.407C79.7738 187.211 80.0387 188.364 79.4542 188.962ZM86.8301 191.157C86.5883 191.941 85.4639 192.297 84.3312 191.964C83.2002 191.621 82.46 190.704 82.6885 189.912C82.9237 189.124 84.053 188.753 85.194 189.109C86.3234 189.45 87.0652 190.361 86.8301 191.157ZM95.2242 192.089C95.2523 192.913 94.2919 193.597 93.1029 193.612C91.9073 193.639 90.9402 192.971 90.9269 192.16C90.9269 191.327 91.8659 190.65 93.0615 190.63C94.2505 190.607 95.2242 191.269 95.2242 192.089ZM103.47 191.773C103.613 192.577 102.787 193.404 101.606 193.624C100.445 193.836 99.3702 193.339 99.2229 192.541C99.0788 191.716 99.92 190.89 101.079 190.676C102.262 190.471 103.32 190.955 103.47 191.773Z" fill="#161614"/>
</svg>

        </g>
         
        <g transform="translate(3600, 0)">
          <svg width="256" height="256" viewBox="0 0 256 256" fill="none" xmlns="http://www.w3.org/2000/svg">
<rect width="256" height="256" rx="60" fill="#F4F2ED"/>
<path d="M127.999 220.001L165.561 106.809H90.4414L127.999 219.997V220.001Z" fill="#E24329"/>
<path d="M127.999 220.001L90.4413 106.809H37.8003L127.999 219.997V220.001Z" fill="#FC6D26"/>
<path d="M37.8007 106.806L26.3827 141.206C25.3397 144.342 26.4767 147.78 29.2047 149.719L128 220.001L37.8007 106.809V106.806Z" fill="#FCA326"/>
<path d="M37.8003 106.805H90.4413L67.8173 38.6295C66.6533 35.1235 61.5823 35.1235 60.4203 38.6295L37.8003 106.808V106.805Z" fill="#E24329"/>
<path d="M128 220.001L165.562 106.809H218.205L128 219.997V220.001Z" fill="#FC6D26"/>
<path d="M218.203 106.806L229.619 141.206C230.66 144.342 229.519 147.78 226.795 149.719L128 220.001L218.203 106.809V106.806Z" fill="#FCA326"/>
<path d="M218.202 106.805H165.562L188.184 38.6305C189.349 35.1245 194.419 35.1245 195.581 38.6305L218.205 106.808L218.202 106.805Z" fill="#E24329"/>
</svg>

        </g>
         
        <g transform="translate(3900, 0)">
          <svg width="256" height="256" viewBox="0 0 256 256" fill="none" xmlns="http://www.w3.org/2000/svg">
<g clip-path="url(#clip0_36_1184)">
<path d="M196 0H60C26.8629 0 0 26.8629 0 60V196C0 229.137 26.8629 256 60 256H196C229.137 256 256 229.137 256 196V60C256 26.8629 229.137 0 196 0Z" fill="#F4F2ED"/>
<g clip-path="url(#clip1_36_1184)">
<path d="M50.4451 66.8836L40.1711 180.411L99.7602 214.829L112.26 200.445L199.589 138.459L213.459 110.205L180.068 82.2945L114.144 40L50.4451 66.8836Z" fill="url(#paint0_linear_36_1184)"/>
<path d="M73.048 130.068L47.363 168.082L111.575 200.616L174.418 73.904L170.137 40.1711L131.781 73.904L73.048 130.068Z" fill="url(#paint1_linear_36_1184)"/>
<path d="M213.459 110.377L180.068 82.8081V142.055L199.76 138.459L213.459 110.377Z" fill="#09C4EF"/>
<path d="M160.205 214.829L90.5137 194.623L93.0822 181.438L181.952 118.767L193.253 114.486L214.829 197.021L160.205 214.829Z" fill="url(#paint2_linear_36_1184)"/>
<path d="M181.438 73.5615H73.2192V181.781H181.438V73.5615Z" fill="black"/>
<path d="M103.528 87.9453H83.322V132.637H92.9111V119.281H103.185L105.411 118.938L107.98 118.254L110.548 117.226L112.26 116.199L113.973 114.829L115.685 112.945L117.397 110.206L118.254 107.637L118.596 104.384L118.425 101.13L117.74 98.2193L116.712 95.6508L115.514 93.7672L113.973 92.2261L112.432 91.0275L110.891 90.0001L109.349 89.3152L108.151 88.8015L106.61 88.459L104.897 88.1165L103.528 87.9453Z" fill="white" stroke="black"/>
<path d="M101.815 96.678H93.0823V110.377H102.158L103.87 109.863L105.582 109.178L106.952 107.979L107.98 106.267L108.493 104.555V102.329L108.151 101.13L107.466 99.7602L106.438 98.5615L105.24 97.7054L103.699 97.0204L101.815 96.678Z" fill="black" stroke="black"/>
<path d="M123.904 161.575H83.4932V168.082H123.904V161.575Z" fill="white"/>
<path d="M169.795 110.365L169.795 110.371V110.377C169.795 115.414 167.585 120.727 163.845 124.938C159.652 129.658 153.549 132.979 146.507 132.979C133.163 132.979 122.877 123.4 122.877 110.548C122.877 104.107 124.962 98.2442 128.997 93.9939C133.03 89.7449 139.025 87.0918 146.874 87.0918C153.549 87.0918 159.501 89.9045 163.673 94.2284C167.832 98.5397 170.218 104.349 169.795 110.365Z" fill="white" stroke="black"/>
<path d="M160.377 109.863C160.209 117.567 155.411 124.075 145.479 124.075C137.346 124.075 132.808 117.145 132.808 109.863C132.808 102.581 137.86 96.3357 145.993 96.3357C154.126 96.3357 160.548 101.986 160.377 109.863Z" fill="black"/>
<path d="M157.294 101.473L163.801 94.1096L171.678 102.842V116.199L163.801 124.932L157.466 118.767L157.294 101.473Z" fill="black" stroke="black"/>
</g>
</g>
<defs>
<linearGradient id="paint0_linear_36_1184" x1="113.801" y1="40" x2="97.5342" y2="215" gradientUnits="userSpaceOnUse">
<stop stop-color="#2CD788"/>
<stop offset="0.37966" stop-color="#24D68E"/>
<stop offset="1" stop-color="#1ED593"/>
</linearGradient>
<linearGradient id="paint1_linear_36_1184" x1="169.623" y1="40.3424" x2="64.3151" y2="174.76" gradientUnits="userSpaceOnUse">
<stop stop-color="#ADE46C"/>
<stop offset="0.886667" stop-color="#59DC7E"/>
<stop offset="1" stop-color="#1FD593"/>
</linearGradient>
<linearGradient id="paint2_linear_36_1184" x1="99.2465" y1="215" x2="215" y2="197.021" gradientUnits="userSpaceOnUse">
<stop stop-color="#BAE768"/>
<stop offset="0.993345" stop-color="#FBF849"/>
<stop offset="1" stop-color="#FAF748"/>
</linearGradient>
<clipPath id="clip0_36_1184">
<rect width="256" height="256" fill="white"/>
</clipPath>
<clipPath id="clip1_36_1184">
<rect width="175" height="175" fill="white" transform="translate(40 40)"/>
</clipPath>
</defs>
</svg>

        </g>
         
        <g transform="translate(4200, 0)">
          <svg xmlns="http://www.w3.org/2000/svg" width="256" height="256" fill="none" viewBox="0 0 256 256"><rect width="256" height="256" fill="#F4F2ED" rx="60"/><path fill="#2489CA" d="M33.7158 100.208C33.7158 100.208 28.9814 96.795 34.6627 92.2381L47.8994 80.402C47.8994 80.402 51.6869 76.4172 55.6915 79.8891L177.84 172.368V216.714C177.84 216.714 177.781 223.678 168.844 222.908L33.7158 100.208Z"/><path fill="#1070B3" d="M65.1997 128.792L33.7157 157.415C33.7157 157.415 30.4805 159.822 33.7157 164.123L48.3333 177.418C48.3333 177.418 51.8052 181.147 56.9341 176.905L90.3119 151.596L65.1997 128.792Z"/><path fill="#0877B9" d="M120.474 129.029L178.215 84.9391L177.84 40.83C177.84 40.83 175.374 31.2033 167.148 36.2139L90.312 106.145L120.474 129.029Z"/><path fill="#3C99D4" d="M168.844 222.968C172.198 226.4 176.262 225.276 176.262 225.276L221.259 203.103C227.019 199.177 226.21 194.305 226.21 194.305V61.8982C226.21 56.0788 220.252 54.0667 220.252 54.0667L181.253 35.267C172.731 30 167.148 36.2139 167.148 36.2139C167.148 36.2139 174.328 31.0455 177.84 40.83V215.905C177.84 217.109 177.583 218.292 177.071 219.358C176.045 221.429 173.816 223.362 168.47 222.553L168.844 222.968Z"/></svg>
        </g>
        
  </svg>
  